<?xml version="1.0" encoding="UTF-8"?>
<!-- Generator: Adobe Illustrator 25.4.1, SVG Export Plug-In . SVG Version: 6.00 Build 0) -->
<svg xmlns="http://www.w3.org/2000/svg" xmlns:xlink="http://www.w3.org/1999/xlink" id="Слой_1" x="0px" y="0px" viewBox="0 0 1200 520" style="enable-background:new 0 0 1200 520;" xml:space="preserve"> <style type="text/css"> .st0{fill:url(#SVGID_1_);} .st1{fill:#FFEFF0;filter:url(#Adobe_OpacityMaskFilter);} .st2{mask:url(#mask0_95_331_00000064342643152483917170000009088815926453663110_);} .st3{fill:url(#SVGID_00000111165244858661036250000004390776099252659891_);} .st4{fill:url(#SVGID_00000163069076997557844910000008718619345128478599_);} </style> <g> <linearGradient id="SVGID_1_" gradientUnits="userSpaceOnUse" x1="-116.6973" y1="594.314" x2="520.2177" y2="124.341" gradientTransform="matrix(1 0 0 -1 204 476)"> <stop offset="0" style="stop-color:#043936"/> <stop offset="1" style="stop-color:#0D554F"/> </linearGradient> <rect class="st0" width="1200" height="520"/> </g> <defs> <filter id="Adobe_OpacityMaskFilter" filterUnits="userSpaceOnUse" x="-115.2" y="8.6" width="1427.7" height="821.1"> <feColorMatrix type="matrix" values="1 0 0 0 0 0 1 0 0 0 0 0 1 0 0 0 0 0 1 0"/> </filter> </defs> <mask maskUnits="userSpaceOnUse" x="-115.2" y="8.6" width="1427.7" height="821.1" id="mask0_95_331_00000064342643152483917170000009088815926453663110_"> <rect x="0.5" y="-0.3" class="st1" width="1200" height="520"/> </mask> <g class="st2"> <linearGradient id="SVGID_00000183951785814569552500000004401999621614287242_" gradientUnits="userSpaceOnUse" x1="437.9526" y1="310.5011" x2="1133.0817" y2="-112.8619" gradientTransform="matrix(1 0 0 -1 204 476)"> <stop offset="0" style="stop-color:#68A09D"/> <stop offset="0.517" style="stop-color:#7EB9A4"/> </linearGradient> <path style="fill:url(#SVGID_00000183951785814569552500000004401999621614287242_);" d="M753.4,561 c-120.5-52.9-158.1-205.7-75.8-308.4l46.8-58.5c15.4-19.2,25.4-42.7,28.8-67.1l0,0c13.4-96.9,122.3-149.9,205.5-98.4l0,0 c12.8,8,24.3,18,33.8,29.7l95.2,117.2c19.8,24.4,43,45.7,68.9,63.4l84,57.2c53,36.1,80.1,99.6,69.6,162.8l-9.8,58.5 c-11,65.9-77,107.4-141.2,88.8l0,0c-7.8-2.3-15.9-3.7-24-4.2l-207.1-13.2l-114.9-11.9C792.6,574.7,772.4,569.4,753.4,561L753.4,561 z"/> <linearGradient id="SVGID_00000137117085663021700620000018063058163317422497_" gradientUnits="userSpaceOnUse" x1="-6.2537" y1="131.1249" x2="-292.7917" y2="-369.5951" gradientTransform="matrix(1 0 0 -1 204 476)"> <stop offset="0" style="stop-color:#68A09D"/> <stop offset="0.517" style="stop-color:#7EB9A4"/> </linearGradient> <path style="fill:url(#SVGID_00000137117085663021700620000018063058163317422497_);" d="M-101.7,417 c33.3-86.2,139.5-117.2,213.9-62.5l70.2,51.6c14.8,10.8,31.9,18,50,20.8l22,3.4c68.7,10.6,105.2,87.1,70.1,147.2l0,0 c-6.2,10.6-14.3,20-24,27.6l-82.2,65.1c-18.5,14.6-34.5,32.2-47.4,52l-30.5,46.8C111.3,814,57.8,837,4.9,827.5l-50.5-9.1 c-47.4-8.5-78.1-54.9-67.5-101.9l0,0c1.5-6.6,2.2-13.3,2.1-20l-2.3-150.2l2.2-82.4C-110.6,447.8-107.5,432-101.7,417L-101.7,417z"/> </g> </svg>