<?xml version="1.0" encoding="UTF-8"?>
<!-- Generator: Adobe Illustrator 25.4.1, SVG Export Plug-In . SVG Version: 6.00 Build 0) -->
<svg xmlns="http://www.w3.org/2000/svg" xmlns:xlink="http://www.w3.org/1999/xlink" id="Слой_1" x="0px" y="0px" viewBox="0 0 160 50" style="enable-background:new 0 0 160 50;" xml:space="preserve"> <style type="text/css"> .st0{clip-path:url(#SVGID_00000127014077131687174830000007803154570424874908_);} .st1{fill:#E8991A;} .st2{fill:#E31F37;} .st3{fill:#FBAE21;} .st4{fill:#FFFFFF;} .st5{fill:#272731;} </style> <g> <g> <defs> <rect id="SVGID_1_" x="124" y="6.8" transform="matrix(8.715574e-02 -0.9962 0.9962 8.715574e-02 104.5952 149.8222)" width="20" height="22"/> </defs> <clipPath id="SVGID_00000066492453742921972840000002555009827418783932_"> <use xlink:href="#SVGID_1_" style="overflow:visible;"/> </clipPath> <g style="clip-path:url(#SVGID_00000066492453742921972840000002555009827418783932_);"> <path class="st1" d="M133.6,27.8c-3.1-0.3-5.7-1.4-5.7-2.4c0.1-1,2.9-1.6,6-1.3c3.1,0.3,5.6,1.3,5.5,2.3 C139.3,27.4,136.7,28.1,133.6,27.8z"/> <path class="st2" d="M133.6,27.2c-3.1-0.3-5.8-1.2-5.7-2.1c0.1-0.8,2.8-1.2,5.9-0.9c3.1,0.3,5.6,1.1,5.5,1.9 C139.4,27,136.7,27.5,133.6,27.2z"/> <path class="st3" d="M127.9,25.6c0,0,2.7-1.4,5.8-1.1c4.2,0.4,5.6,2.2,5.6,2.2l5.5-5.3l-4.4,1.6l4.3-5.9l-5.9,3.5l2.2-7.3 l-4.8,5.9l-1.5-8.9l-2.2,8.8l-4.1-7.3l0.6,8l-4.7-5.1c0,0,2.7,6.1,2.6,6c-0.1-0.1-3.9-1.9-3.9-1.9L127.9,25.6z"/> <path class="st4" d="M127.5,22.5c0-0.2,0.2-0.4,0.4-0.4c0.2,0,0.3,0.2,0.3,0.5c0,0.2-0.2,0.4-0.4,0.4c-0.1,0-0.2-0.1-0.2-0.2 S127.4,22.6,127.5,22.5z"/> <path class="st4" d="M139.7,23.8c0-0.2,0.2-0.4,0.4-0.4c0.2,0,0.3,0.2,0.3,0.5c0,0.2-0.2,0.4-0.4,0.4c-0.1,0-0.2-0.1-0.2-0.2 C139.7,24,139.7,23.9,139.7,23.8z"/> <path class="st4" d="M130.3,21.5c0-0.3,0.2-0.5,0.4-0.5c0.2,0,0.4,0.3,0.3,0.6c0,0.1,0,0.1,0,0.2c0,0.1,0,0.1-0.1,0.2 c0,0-0.1,0.1-0.2,0.1c-0.1,0-0.1,0-0.2,0c-0.1,0-0.1,0-0.2-0.1s-0.1-0.1-0.1-0.1c0-0.1-0.1-0.1-0.1-0.2 C130.2,21.7,130.3,21.6,130.3,21.5z"/> <path class="st4" d="M137,22.3c0-0.3,0.2-0.5,0.4-0.5c0.1,0,0.2,0.1,0.3,0.2c0.1,0.1,0.1,0.2,0.1,0.4c0,0.3-0.2,0.5-0.4,0.5 C137.1,22.8,137,22.6,137,22.3z"/> <path class="st4" d="M133.1,21.2c0.1-0.7,0.6-1.2,1.1-1.2c0.5,0.1,0.9,0.7,0.8,1.4c-0.1,0.7-0.6,1.2-1.1,1.2 C133.4,22.6,133.1,21.9,133.1,21.2z"/> <path class="st2" d="M134.7,9.1c-0.3-0.3-0.3-0.8-0.7-1.1c-0.4-0.3-1-0.4-1.2,0.2c-0.4,1.2,1.5,2.2,1.9,3.2 c0.7-0.8,2.1-1.3,2.4-2.4C137.5,7.4,135.1,8.5,134.7,9.1z"/> </g> </g> <path class="st5" d="M20.5,34.2l-0.4,4.7c-0.5,0.9-1.2,1.6-2,2.3c-0.8,0.7-1.7,1.2-2.8,1.6c-1.1,0.4-2.3,0.6-3.7,0.6 c-2.1,0-3.9-0.5-5.6-1.4c-1.6-0.9-2.9-2.2-3.8-3.8C1.5,36.5,1,34.6,1,32.4c0-2.2,0.5-4.1,1.4-5.7c0.9-1.6,2.2-2.9,3.8-3.8 c1.6-0.9,3.6-1.4,5.8-1.4c1.5,0,2.8,0.2,4,0.6c1.2,0.4,2.2,0.9,3.1,1.4l0.6,4.2h-0.3c-0.4-1.8-1.3-3.1-2.7-4 c-1.4-0.9-2.9-1.4-4.7-1.4c-1.8,0-3.3,0.4-4.6,1.3c-1.3,0.8-2.3,2-3,3.5c-0.7,1.5-1,3.2-1,5.2s0.3,3.8,1,5.2c0.7,1.5,1.7,2.7,3,3.5 c1.3,0.8,2.8,1.3,4.4,1.3c1.4,0,2.7-0.3,3.9-0.8c1.2-0.5,2.2-1.4,3.1-2.6c0.8-1.2,1.3-2.8,1.6-4.9H20.5z M32.1,24.5 c1.4,0,2.7,0.2,3.9,0.7c1.2,0.4,2.3,1.1,3.2,1.9c0.9,0.8,1.7,1.8,2.2,3c0.5,1.1,0.8,2.4,0.8,3.8c0,1.4-0.3,2.7-0.8,3.8 c-0.5,1.1-1.2,2.1-2.2,3c-0.9,0.8-2,1.5-3.2,1.9c-1.2,0.4-2.5,0.7-3.9,0.7c-1.4,0-2.7-0.2-3.9-0.7c-1.2-0.5-2.3-1.1-3.2-1.9 c-0.9-0.8-1.6-1.8-2.2-3c-0.5-1.2-0.8-2.4-0.8-3.8c0-1.4,0.3-2.7,0.8-3.8c0.5-1.2,1.2-2.2,2.2-3c0.9-0.8,2-1.5,3.2-1.9 C29.4,24.7,30.7,24.5,32.1,24.5z M32.1,42.4c1.5,0,2.8-0.4,4-1.1c1.2-0.7,2.2-1.7,2.8-3c0.7-1.3,1.1-2.8,1.1-4.4 c0-1.7-0.4-3.2-1.1-4.4c-0.7-1.3-1.6-2.3-2.8-3c-1.2-0.7-2.5-1.1-4-1.1c-1.5,0-2.8,0.4-4,1.1c-1.2,0.7-2.1,1.7-2.9,3 c-0.7,1.3-1,2.7-1,4.4c0,1.7,0.4,3.2,1,4.4c0.7,1.3,1.6,2.3,2.9,3C29.3,42.1,30.7,42.4,32.1,42.4z M49.3,24.5c0.6,0,1.1,0,1.5,0.1 c0.4,0,0.8,0.1,1.1,0.2c0.3,0,0.6,0.1,0.8,0.2c0.2,0.1,0.5,0.1,0.6,0.2l0,3h-0.4c0-0.8-0.3-1.5-0.8-1.9c-0.6-0.5-1.4-0.7-2.6-0.7 c-1,0-1.9,0.3-2.6,0.8c-0.7,0.5-1,1.2-1,2c0,0.3,0,0.5,0.1,0.8c0.1,0.3,0.2,0.5,0.4,0.8c0.2,0.3,0.4,0.5,0.7,0.8l6.1,4.7 c0.5,0.4,0.8,0.9,1,1.5c0.2,0.6,0.3,1.2,0.4,1.7c0,0.9-0.2,1.7-0.7,2.4c-0.5,0.7-1.1,1.3-2,1.8c-0.8,0.4-1.7,0.6-2.7,0.6 c-0.6,0-1.2,0-1.9-0.1c-0.7-0.1-1.3-0.2-1.9-0.5c-0.6-0.2-1.1-0.5-1.4-0.8c-0.1-0.3-0.1-0.6-0.1-1c0-0.4,0-0.9,0.1-1.4 c0.1-0.5,0.2-0.9,0.3-1.3h0.4c-0.1,0.9,0,1.7,0.4,2.3c0.3,0.6,0.8,1.1,1.5,1.5c0.7,0.3,1.4,0.5,2.3,0.5c1.2,0,2.2-0.4,2.9-0.9 c0.7-0.6,1.1-1.4,1.1-2.4c0-0.5-0.1-0.9-0.3-1.3c-0.2-0.4-0.4-0.8-0.8-1.1l-6-4.6c-0.6-0.5-0.9-1-1.1-1.6s-0.3-1.1-0.3-1.7 c0-0.8,0.2-1.6,0.7-2.2c0.4-0.7,1-1.2,1.8-1.6C47.5,24.7,48.3,24.5,49.3,24.5z M53.2,24.8l0,0.5h-2.1v-0.5H53.2z M75.5,24.5l0.3,2 l-7,13.8c0,0-0.1,0.2-0.2,0.5c-0.1,0.3-0.3,0.8-0.5,1.2c-0.2,0.5-0.3,0.9-0.4,1.3h-0.3L67,41.4L75.5,24.5z M58,40.9v2h-3.1v-0.3 c0,0,0.1,0,0.2,0c0.2,0,0.2,0,0.2,0c0.5,0,1-0.2,1.3-0.5c0.4-0.3,0.6-0.7,0.7-1.3H58z M58.9,41.4c0,0.3,0,0.6,0.2,0.9 c0.2,0.3,0.5,0.4,0.9,0.4h0.4v0.3h-1.7v-1.6H58.9z M59.7,24.5H60l0.6,1.8l-1.9,16.6h-1.7L59.7,24.5z M60,24.5l8.2,15.7l-0.7,3.1 l-8-15.5L60,24.5z M75.8,24.5l2.7,18.4h-2.3l-2-15.1l1.3-3.3H75.8z M77.6,40.9h0.6c0.1,0.5,0.3,1,0.7,1.3s0.8,0.5,1.3,0.5 c0,0,0.1,0,0.2,0c0.2,0,0.2,0,0.2,0v0.3h-3.1V40.9z M76,41.4h0.2v1.6h-1.7v-0.3h0.5c0.5,0,0.8-0.2,0.9-0.5 C76,41.9,76.1,41.6,76,41.4z M85.4,24.9v18h-1.9v-18H85.4z M83.6,41v1.9h-2.6v-0.3c0,0,0.1,0,0.2,0c0.1,0,0.2,0,0.2,0 c0.6,0,1-0.2,1.4-0.5C83.3,41.8,83.5,41.4,83.6,41L83.6,41z M85.3,41L85.3,41c0.1,0.4,0.3,0.8,0.7,1.1c0.4,0.3,0.9,0.5,1.4,0.5 c0,0,0.1,0,0.2,0c0.1,0,0.2,0,0.2,0l0,0.3h-2.6V41z M85.3,26.8v-1.9h2.6l0,0.3c0,0-0.1,0-0.2,0c-0.1,0-0.2,0-0.2,0 c-0.6,0-1,0.2-1.4,0.5C85.7,26,85.5,26.4,85.3,26.8L85.3,26.8z M83.6,26.8L83.6,26.8c-0.1-0.5-0.3-0.8-0.7-1.1 c-0.4-0.3-0.8-0.5-1.4-0.5c0,0-0.1,0-0.2,0c-0.1,0-0.2,0-0.2,0v-0.3h2.6V26.8z M95.5,21.5c0.3,0,0.7,0,1,0.1c0.4,0,0.7,0.1,1.1,0.2 c0.4,0.1,0.7,0.1,1,0.2c0.3,0.1,0.5,0.1,0.7,0.2v3.3H99c0-1-0.3-1.7-1-2.2c-0.7-0.6-1.5-0.8-2.4-0.8c-1.1,0-2,0.4-2.7,1.1 c-0.7,0.7-1,1.5-1,2.4c0,0.4,0.1,0.8,0.2,1.4c0.2,0.5,0.5,1,1,1.4l5.9,5.5c0.6,0.6,1,1.2,1.2,1.8c0.2,0.6,0.3,1.3,0.3,1.9 c0,1.7-0.5,3-1.5,4c-1,1-2.4,1.6-4.1,1.6c-0.5,0-1,0-1.7-0.1c-0.6-0.1-1.3-0.3-1.9-0.5c-0.6-0.3-1.1-0.6-1.5-1 c-0.1-0.3-0.1-0.7-0.1-1.2s0-1,0.1-1.5c0.1-0.5,0.2-1,0.3-1.5h0.3c-0.1,1,0,1.9,0.4,2.7c0.4,0.8,0.9,1.3,1.6,1.7 c0.7,0.4,1.5,0.6,2.4,0.5c1.1-0.1,2-0.4,2.8-1.1c0.8-0.7,1.2-1.7,1.2-2.9c0-0.6-0.1-1.1-0.3-1.6c-0.2-0.5-0.5-0.9-0.9-1.2l-5.8-5.3 c-0.6-0.6-1-1.2-1.3-1.8c-0.2-0.7-0.4-1.3-0.4-1.9c0-0.8,0.2-1.6,0.6-2.4c0.4-0.8,1-1.4,1.8-1.9C93.4,21.7,94.4,21.5,95.5,21.5z M99.3,21.8v0.6H97v-0.6H99.3z M119.4,24.9v18h-1.9v-18H119.4z M106.4,24.9v18h-1.9v-18H106.4z M117.8,33.6v0.9h-11.7v-0.9H117.8z M104.6,41v1.9h-2.2v-0.3c0,0,0.1,0,0.2,0c0.1,0,0.2,0,0.2,0c0.5,0,0.9-0.2,1.2-0.5C104.3,41.8,104.5,41.4,104.6,41L104.6,41z M106.3,41L106.3,41c0.1,0.4,0.3,0.8,0.6,1.1c0.3,0.3,0.8,0.5,1.2,0.5c0,0,0.1,0,0.2,0c0.1,0,0.2,0,0.2,0v0.3h-2.2V41z M106.3,26.8 v-1.9h2.2v0.3c0,0-0.1,0-0.2,0c-0.1,0-0.2,0-0.2,0c-0.5,0-0.9,0.2-1.2,0.5C106.6,26,106.4,26.4,106.3,26.8L106.3,26.8z M104.6,26.8 L104.6,26.8c-0.1-0.5-0.3-0.8-0.6-1.1c-0.3-0.3-0.7-0.5-1.2-0.5c0,0-0.1,0-0.2,0c-0.1,0-0.2,0-0.2,0v-0.3h2.2V26.8z M117.6,41v1.9 h-2.2v-0.3c0,0,0.1,0,0.2,0c0.1,0,0.2,0,0.2,0c0.5,0,0.9-0.2,1.2-0.5C117.3,41.8,117.5,41.4,117.6,41L117.6,41z M119.3,41L119.3,41 c0.1,0.4,0.3,0.8,0.6,1.1c0.3,0.3,0.8,0.5,1.2,0.5c0,0,0.1,0,0.2,0c0.1,0,0.2,0,0.2,0v0.3h-2.2V41z M119.3,26.8v-1.9h2.2v0.3 c0,0-0.1,0-0.2,0c-0.1,0-0.2,0-0.2,0c-0.5,0-0.9,0.2-1.2,0.5C119.6,26,119.4,26.4,119.3,26.8L119.3,26.8z M117.6,26.8L117.6,26.8 c-0.1-0.5-0.3-0.8-0.6-1.1c-0.3-0.3-0.7-0.5-1.2-0.5c0,0-0.1,0-0.2,0c-0.1,0-0.2,0-0.2,0v-0.3h2.2V26.8z M132.8,24.5 c1.4,0,2.7,0.2,3.9,0.7c1.2,0.4,2.3,1.1,3.2,1.9c0.9,0.8,1.7,1.8,2.2,3c0.5,1.1,0.8,2.4,0.8,3.8c0,1.4-0.3,2.7-0.8,3.8 c-0.5,1.1-1.2,2.1-2.2,3c-0.9,0.8-2,1.5-3.2,1.9c-1.2,0.4-2.5,0.7-3.9,0.7c-1.4,0-2.7-0.2-3.9-0.7c-1.2-0.5-2.3-1.1-3.2-1.9 c-0.9-0.8-1.6-1.8-2.2-3c-0.5-1.2-0.8-2.4-0.8-3.8c0-1.4,0.3-2.7,0.8-3.8c0.5-1.2,1.2-2.2,2.2-3c0.9-0.8,2-1.5,3.2-1.9 C130.1,24.7,131.4,24.5,132.8,24.5z M132.8,42.4c1.5,0,2.8-0.4,4-1.1c1.2-0.7,2.1-1.7,2.9-3c0.7-1.3,1-2.8,1-4.4 c0-1.7-0.3-3.2-1-4.4c-0.7-1.3-1.7-2.3-2.9-3c-1.2-0.7-2.5-1.1-4-1.1c-1.5,0-2.8,0.4-4,1.1c-1.2,0.7-2.2,1.7-2.8,3 c-0.7,1.3-1.1,2.7-1.1,4.4c0,1.7,0.4,3.2,1.1,4.4c0.7,1.3,1.6,2.3,2.8,3C130,42.1,131.3,42.4,132.8,42.4z M147.8,24.9h3.3 c1.4,0,2.6,0.2,3.6,0.6c1,0.4,1.8,1,2.4,1.8c0.6,0.8,0.8,1.7,0.8,2.7c0,1.1-0.3,2.1-0.8,2.9c-0.5,0.8-1.2,1.4-2,1.9 c-0.8,0.4-1.8,0.6-2.8,0.6c-1,0-2-0.3-3.1-0.8v-0.3c0,0,0.2,0,0.5,0.1c0.3,0.1,0.8,0.1,1.3,0.1c0.5,0,1.1-0.1,1.7-0.3 c0.6-0.2,1.1-0.5,1.6-1c0.5-0.5,0.9-1.1,1.2-2c0.1-0.2,0.1-0.5,0.2-0.8c0-0.3,0.1-0.6,0.1-0.8c0-1.2-0.4-2.2-1.3-2.9 c-0.8-0.7-2-1.1-3.5-1.1h-2.9c0,0,0-0.1-0.1-0.2c0-0.2-0.1-0.3-0.1-0.5C147.9,25,147.8,24.9,147.8,24.9z M148.2,24.9v18h-1.9v-18 H148.2z M146.4,41l0.4,1.9h-2.6v-0.3c0,0,0.1,0,0.2,0s0.2,0,0.2,0c0.5,0,0.9-0.2,1.2-0.5C146.1,41.8,146.3,41.4,146.4,41L146.4,41z M146.4,26.8L146.4,26.8c-0.1-0.5-0.3-0.8-0.6-1.1c-0.3-0.3-0.7-0.5-1.2-0.5c0,0-0.1,0-0.2,0s-0.2,0-0.2,0v-0.3h2.6L146.4,26.8z M148.1,41L148.1,41c0.1,0.4,0.2,0.8,0.6,1.1c0.3,0.3,0.8,0.5,1.2,0.5c0,0,0.1,0,0.2,0c0.1,0,0.2,0,0.2,0v0.3h-2.6L148.1,41z"/> </g> </svg>