<svg width="16" height="16" viewBox="0 0 16 16" fill="none" xmlns="http://www.w3.org/2000/svg">
<path d="M14.0937 11.6876C13.5975 11.1876 12.3956 10.4579 11.8125 10.1639C11.0531 9.78137 10.9906 9.75012 10.3937 10.1936C9.99558 10.4895 9.73089 10.7539 9.26495 10.6545C8.79901 10.5551 7.78651 9.99481 6.89995 9.11106C6.01339 8.22731 5.42058 7.18543 5.32089 6.72106C5.2212 6.25668 5.48995 5.99512 5.78308 5.59606C6.1962 5.03356 6.16495 4.93981 5.81183 4.18044C5.53651 3.58981 4.78558 2.39919 4.2837 1.90544C3.74683 1.37512 3.74683 1.46887 3.40089 1.61262C3.11925 1.73112 2.84906 1.87516 2.5937 2.04294C2.0937 2.37512 1.8162 2.65106 1.62214 3.06575C1.42807 3.48044 1.34089 4.45262 2.34308 6.27325C3.34526 8.09387 4.04839 9.02481 5.5037 10.4761C6.95901 11.9273 8.07808 12.7076 9.71401 13.6251C11.7378 14.7586 12.514 14.5376 12.93 14.3439C13.3459 14.1501 13.6231 13.8751 13.9559 13.3751C14.1241 13.1202 14.2685 12.8503 14.3871 12.5689C14.5312 12.2242 14.625 12.2242 14.0937 11.6876Z" stroke="#0c514b" stroke-miterlimit="10"/>
</svg>